# xmcd CD database file
#
# Track frame offsets:
#	182
#	11765
#	25207
#	37300
#	48890
#	63930
#	78417
#	93330
#	106770
#	118255
#	131277
#	144685
#	166120
#	181452
#	195637
#	209557
#
# Disc length: 2945 seconds
#
# Revision: 0
# Processed by: cddbd v1.5.2PL0 Copyright (c) Steve Scherf et al.
# Submitted via: CDex 1.51
#
DISCID=dc0b7f10
DTITLE=Nat King Cole - "Jazzy" The beginnings
DYEAR=1997
DGENRE=Jazz
TTITLE0=Honeysuckle rose
TTITLE1=Sweet Lorraine
TTITLE2=Gone with the draft
TTITLE3=Scotch with the soda
TTITLE4=This will make you laugh
TTITLE5=Call the police
TTITLE6=That ain't right
TTITLE7=Hit the jive Jack
TTITLE8=A trio groove
TTITLE9=The sunny side of the street
TTITLE10=Blue because of you
TTITLE11=Tea for two
TTITLE12=All for you
TTITLE13=I'm lost
TTITLE14=My tips
TTITLE15=Got a penny
EXTD=YEAR: 1997
EXTT0=
EXTT1=
EXTT2=
EXTT3=
EXTT4=
EXTT5=
EXTT6=
EXTT7=
EXTT8=
EXTT9=
EXTT10=
EXTT11=
EXTT12=
EXTT13=
EXTT14=
EXTT15=
PLAYORDER=
